<svg width="357" height="82" viewBox="0 0 357 82" fill="none" xmlns="http://www.w3.org/2000/svg">
<path d="M0.716797 81.8465V0H16.1507V33.7909H46.5509V0H61.9848V81.8465H46.5509V47.8218H16.1507V81.8465H0.716797Z" fill="#F74928"/>
<path d="M62.4817 81.8465L83.9956 0H110.888L132.402 81.8465H116.5L112.057 63.8403H82.8264L78.3833 81.8465H62.4817ZM86.451 49.5756H108.433L98.4942 9.70466H96.3895L86.451 49.5756Z" fill="#F74928"/>
<path d="M132.845 81.8465V0H168.39C173.534 0 178.017 0.896414 181.836 2.68924C185.656 4.48207 188.618 7.01542 190.722 10.2893C192.827 13.5631 193.879 17.4216 193.879 21.8647V23.2678C193.879 28.1786 192.71 32.154 190.371 35.194C188.033 38.234 185.149 40.4556 181.719 41.8587V43.9633C184.837 44.1192 187.254 45.2105 188.968 47.2371C190.683 49.1859 191.541 51.7972 191.541 55.071V81.8465H176.107V57.2926C176.107 55.4218 175.6 53.9018 174.587 52.7326C173.651 51.5633 172.053 50.9787 169.793 50.9787H148.279V81.8465H132.845ZM148.279 36.9479H166.753C170.417 36.9479 173.262 35.9735 175.288 34.0248C177.393 31.9981 178.445 29.3478 178.445 26.074V24.9047C178.445 21.6309 177.432 19.0196 175.405 17.0709C173.379 15.0442 170.494 14.0308 166.753 14.0308H148.279V36.9479Z" fill="#F74928"/>
<path d="M195.029 81.8465V68.2834H205.786V13.5631H195.029V0H228.703C239.694 0 248.035 2.80617 253.725 8.4185C259.493 13.9529 262.377 22.2155 262.377 33.2063V48.6402C262.377 59.631 259.493 67.9326 253.725 73.545C248.035 79.0793 239.694 81.8465 228.703 81.8465H195.029ZM221.22 67.8157H228.937C235.173 67.8157 239.733 66.1788 242.617 62.9049C245.501 59.631 246.943 55.0321 246.943 49.1079V32.7386C246.943 26.7365 245.501 22.1375 242.617 18.9416C239.733 15.6678 235.173 14.0308 228.937 14.0308H221.22V67.8157Z" fill="#F74928"/>
<path d="M270.723 81.8465L292.237 0H319.129L340.643 81.8465H324.741L320.298 63.8403H291.067L286.624 81.8465H270.723ZM294.692 49.5756H316.674L306.735 9.70466H304.63L294.692 49.5756Z" fill="white"/>
<path d="M341.086 81.8465V0H356.52V81.8465H341.086Z" fill="white"/>
</svg>
