<svg width="302" height="70" viewBox="0 0 302 70" fill="none" xmlns="http://www.w3.org/2000/svg">
    <g clip-path="url(#clip0_9_107)">
        <path d="M164.382 69.9399V58.8372H173.188V14.044H164.382V2.94139H191.947C200.944 2.94139 207.772 5.23848 212.43 9.83266C217.152 14.363 219.512 21.1267 219.512 30.1236V42.7576C219.512 51.7546 217.152 58.5501 212.43 63.1443C207.772 67.6747 200.944 69.9399 191.947 69.9399H164.382ZM185.822 58.4544H192.139C197.243 58.4544 200.976 57.1144 203.337 54.4345C205.698 51.7546 206.879 47.9899 206.879 43.1405V29.7408C206.879 24.8276 205.698 21.0629 203.337 18.4467C200.976 15.7668 197.243 14.4268 192.139 14.4268H185.822V58.4544Z" fill="#F74928"/>
        <path d="M113.479 69.9399V2.94139H142.576C146.787 2.94139 150.456 3.67518 153.583 5.14277C156.709 6.61035 159.134 8.68412 160.857 11.3641C162.58 14.044 163.441 17.2025 163.441 20.8396V21.9881C163.441 26.008 162.484 29.2622 160.57 31.7507C158.655 34.2393 156.294 36.0578 153.487 37.2063V38.9291C156.039 39.0568 158.017 39.9501 159.421 41.6091C160.825 43.2043 161.527 45.3419 161.527 48.0218V69.9399H148.893V49.8403C148.893 48.3089 148.478 47.0647 147.648 46.1075C146.883 45.1504 145.575 44.6719 143.724 44.6719H126.113V69.9399H113.479ZM126.113 33.1864H141.236C144.235 33.1864 146.564 32.3888 148.223 30.7936C149.946 29.1346 150.807 26.9651 150.807 24.2852V23.3281C150.807 20.6481 149.977 18.5106 148.318 16.9154C146.659 15.2563 144.299 14.4268 141.236 14.4268H126.113V33.1864Z" fill="#F74928"/>
        <path d="M55.8808 69.9399L73.4918 2.94139H95.5056L113.117 69.9399H100.1L96.4627 55.2002H72.5347L68.8977 69.9399H55.8808ZM75.5018 43.5233H93.4957L85.3601 10.8855H83.6373L75.5018 43.5233Z" fill="#F74928"/>
        <path d="M5.32068 69.9399V2.94139H17.9547V30.6022H42.8398V2.94139H55.4738V69.9399H42.8398V42.0876H17.9547V69.9399H5.32068Z" fill="#F74928"/>
        <path fill-rule="evenodd" clip-rule="evenodd" d="M283.519 2.51788H297V70.3634H283.519V2.51788ZM284.366 3.36489V69.5163H296.153V3.36489H284.366Z" fill="#F74928"/>
        <path fill-rule="evenodd" clip-rule="evenodd" d="M243.628 2.51788H266.295L284.129 70.3634H270.231L266.594 55.6237H243.33L239.692 70.3634H225.795L243.628 2.51788ZM244.281 3.36489L226.893 69.5163H239.029L242.666 54.7767H267.258L270.895 69.5163H283.031L265.642 3.36489H244.281ZM253.77 10.462H256.154L264.501 43.9468H245.423L253.77 10.462ZM254.431 11.309L246.507 43.0998H263.417L255.492 11.309H254.431Z" fill="#F74928"/>
    </g>
    <defs>
        <clipPath id="clip0_9_107">
            <rect width="302" height="70" fill="white"/>
        </clipPath>
    </defs>
</svg>
