<svg width="232" height="232" viewBox="0 0 232 232" fill="none" xmlns="http://www.w3.org/2000/svg">
<path d="M90.3177 14.7789C90.2681 13.518 91.6056 12.7302 92.6906 13.3748C93.6795 13.9625 94.6339 14.5388 95.6244 15.0966C101.093 18.0894 111.337 22.974 116.096 27.0091C123.496 33.4682 130.76 41.0407 135.517 49.6516C140.525 58.3974 144.356 67.7719 146.912 77.5296C148.667 84.1361 149.376 90.9797 149.012 97.8083C148.917 98.7202 149.117 99.6384 149.583 100.426C150.049 101.215 150.756 101.832 151.598 102.184C152.445 102.518 153.375 102.571 154.253 102.336C155.131 102.1 155.911 101.588 156.479 100.875C162.177 94.7779 167.017 81.2659 169.333 76.4746C169.765 75.5801 163.096 89.7206 163.883 90.3269C167.58 93.1755 187.215 87.2439 195.542 105.546C198.381 111.439 200.076 117.816 201.329 124.227C202.556 130.003 202.747 135.859 202.604 141.764C202.134 161.222 194.256 179.99 180.719 194.671C168.763 207.636 153.103 216.452 135.77 219.479C120.877 222.313 105.494 220.961 91.3175 215.571C86.5458 213.592 81.9414 211.226 77.5498 208.499C70.9593 204.861 65.2707 199.748 60.0406 194.32C51.582 184.886 45.2865 174.116 41.5757 161.789C39.9469 155.66 38.9309 149.384 38.5423 143.054C38.0437 132.738 39.3641 121.842 42.8114 112.407C48.0693 98.0169 56.9671 84.1279 69.1396 74.8845C80.3193 66.4504 89.6505 56.5894 94.3509 43.361C96.21 37.7611 97.0662 31.8744 96.8787 25.9741C96.8787 22.6404 90.4473 18.1075 90.3177 14.7789Z" fill="#1D1F20"/>
<path fill-rule="evenodd" clip-rule="evenodd" d="M139.124 47.6228C144.304 56.6757 148.268 66.3771 150.913 76.4746C152.778 83.4974 153.531 90.7711 153.144 98.0283L153.139 98.1337L153.127 98.238C153.124 98.2679 153.131 98.2974 153.145 98.3211L153.161 98.3418L153.181 98.3387C153.202 98.333 153.224 98.3201 153.243 98.2963L153.345 98.1688L153.456 98.05C155.944 95.3868 158.893 90.7938 161.608 86.0113C164.273 81.3176 158.816 82.7956 159.954 80.4417C161.416 77.4155 161.434 68.199 166.73 68.8642C173.825 71.3523 190.327 83.5557 199.29 103.792C202.331 110.116 204.103 116.856 205.383 123.401C206.702 129.624 206.886 135.836 206.741 141.864C206.245 162.38 197.943 182.096 183.761 197.476C171.224 211.071 154.769 220.355 136.512 223.55C120.877 226.52 104.729 225.097 89.8467 219.439L89.7888 219.417L89.7315 219.394C84.7853 217.341 80.011 214.892 75.4562 212.07C68.376 208.144 62.3812 202.713 57.0607 197.191L57.0092 197.137L56.9596 197.082C48.1253 187.23 41.5116 175.931 37.6133 162.982L37.5939 162.917L37.5765 162.852C35.8773 156.459 34.8174 149.911 34.412 143.307L34.4104 143.28L34.4091 143.254C33.8888 132.488 35.2562 121.027 38.9247 110.987C44.3813 96.053 53.6818 81.4265 66.6371 71.5888L66.6474 71.581C77.4862 63.4041 86.1114 54.1572 90.4369 42.0162C92.1334 36.8911 92.9142 31.5046 92.7427 26.1055L92.7407 26.0399V25.9742C92.7407 23.9361 86.4956 20.8185 86.3784 18.7837C86.3087 17.5653 86.2359 16.3022 86.1827 14.9405C86.004 10.3636 90.9306 7.51614 94.8043 9.81743C95.0026 9.93538 95.1962 10.0507 95.3858 10.1638C96.1676 10.6296 96.887 11.0581 97.6337 11.479C103.339 14.6035 110.332 18.3662 116.096 23.0649C124.811 30.1691 133.417 37.3025 139.124 47.6228ZM94.3509 43.361C89.6504 56.5895 80.3193 66.4504 69.1395 74.8846C56.9671 84.1279 48.0693 98.017 42.8114 112.407C39.3641 121.842 38.0437 132.738 38.5423 143.054C38.9309 149.384 39.9469 155.66 41.5756 161.789C45.2864 174.116 51.5819 184.886 60.0405 194.32C65.2707 199.748 70.9592 204.862 77.5498 208.499C81.9414 211.226 86.5457 213.592 91.3174 215.572C105.494 220.961 120.877 222.313 135.77 219.479C153.103 216.453 168.763 207.636 180.718 194.671C194.256 179.99 202.134 161.222 202.604 141.764C202.747 135.859 202.556 130.003 201.329 124.227C200.076 117.816 198.381 111.439 195.542 105.546C187.214 87.244 167.58 93.1755 163.883 90.327C163.096 89.7207 169.765 75.5802 169.333 76.4746C167.017 81.2659 162.177 94.778 156.479 100.875C155.911 101.588 155.131 102.1 154.253 102.336C153.375 102.571 152.445 102.518 151.598 102.184C150.756 101.832 150.049 101.215 149.583 100.427C149.117 99.6385 148.916 98.7203 149.012 97.8083C149.376 90.9797 148.667 84.1362 146.912 77.5297C144.356 67.772 140.525 58.3974 135.517 49.6516C130.76 41.0407 123.496 33.4682 116.096 27.0092C111.337 22.974 101.093 18.0895 95.6243 15.0967C94.8218 14.6446 94.0426 14.1804 93.2499 13.7078C93.064 13.5972 92.878 13.4863 92.6906 13.3748C91.6056 12.7303 90.2681 13.518 90.3176 14.779C90.3641 15.9749 90.4323 17.1705 90.5005 18.3662C90.6223 20.4984 96.8787 23.8383 96.8787 25.9742C97.0662 31.8745 96.21 37.7612 94.3509 43.361Z" fill="#1D1F20"/>
<path d="M87.3673 12.8373C87.3182 11.5763 88.6552 10.7885 89.7402 11.4331C90.7292 12.0209 91.6835 12.5971 92.6745 13.155C98.1429 16.1478 103.297 19.6887 108.055 23.7238C115.456 30.1829 121.674 37.8918 126.432 46.5026C131.439 55.2488 135.271 64.6228 137.827 74.3805C139.582 80.9876 140.291 87.8311 139.927 94.6592C139.832 95.5712 140.032 96.4894 140.498 97.2779C140.964 98.066 141.671 98.6826 142.513 99.0353C143.359 99.3689 144.289 99.4221 145.167 99.1866C146.046 98.9511 146.826 98.4389 147.394 97.7262C153.091 91.6294 159.997 77.8555 162.312 73.0642C162.745 72.1692 163.837 71.8584 164.624 72.4646C168.322 75.3127 178.129 84.0949 186.457 102.398C189.296 108.29 190.991 114.667 192.243 121.078C193.471 126.855 193.661 132.71 193.518 138.616C193.048 158.073 185.17 176.841 171.634 191.521C159.678 204.488 144.017 213.303 126.684 216.33C111.792 219.164 96.4087 217.812 82.2321 212.422C77.4604 210.442 72.856 208.077 68.4645 205.35C61.8738 201.713 56.1854 196.599 50.9552 191.171C42.4966 181.737 36.2011 170.967 32.4904 158.64C30.8616 152.512 29.8455 146.235 29.457 139.905C28.9584 129.589 30.2788 118.693 33.726 109.258C38.9839 94.8678 47.8818 80.9788 60.0542 71.7355C71.2339 63.3013 80.5656 53.4404 85.2655 40.2121C87.1246 34.6122 87.9808 28.7255 87.7933 22.8252C87.7933 19.4915 87.4974 16.1658 87.3673 12.8373Z" fill="#FABA0D"/>
<path fill-rule="evenodd" clip-rule="evenodd" d="M110.754 20.5865L110.777 20.6061C118.533 27.3756 125.051 35.4528 130.038 44.4736C135.219 53.5266 139.183 63.228 141.828 73.3255C143.693 80.3482 144.446 87.622 144.059 94.8792L144.053 94.9845L144.043 95.0888C144.039 95.1188 144.046 95.1477 144.06 95.172C144.065 95.1802 144.07 95.187 144.076 95.1926C144.082 95.1926 144.089 95.1911 144.096 95.1895C144.116 95.1838 144.139 95.1709 144.158 95.1472L144.259 95.0196L144.37 94.9003C146.859 92.2377 149.808 87.6442 152.523 82.8621C155.188 78.1684 157.449 73.6172 158.587 71.2634C160.049 68.2372 164.081 66.8227 167.149 69.1864C171.312 72.3928 181.568 81.6801 190.205 100.642C193.246 106.967 195.018 113.707 196.298 120.252C197.617 126.475 197.801 132.687 197.655 138.715C197.16 159.23 188.857 178.947 174.675 194.327C162.139 207.922 145.683 217.206 127.427 220.4C111.791 223.37 95.6434 221.948 80.7618 216.29L80.7035 216.268L80.6462 216.244C75.6999 214.192 70.9262 211.743 66.3712 208.921C59.2908 204.995 53.296 199.564 47.9755 194.042L47.924 193.988L47.8744 193.933C39.0401 184.08 32.4263 172.782 28.5281 159.833L28.5086 159.768L28.4912 159.702C26.7921 153.309 25.7322 146.762 25.3268 140.158L25.3252 140.131L25.3239 140.104C24.8036 129.339 26.171 117.878 29.8394 107.838C35.296 92.9034 44.5966 78.2774 57.5518 68.4396L57.5622 68.4319C68.4008 60.2549 77.0261 51.008 81.3521 38.867C83.0485 33.7419 83.8288 28.3554 83.6574 22.9563L83.6553 22.8907V22.825C83.6553 20.7869 83.5458 18.8765 83.4286 16.8418C83.3584 15.6234 83.2856 14.3603 83.2324 12.9986C83.0537 8.42166 87.9808 5.5742 91.854 7.87545C92.0523 7.9934 92.2459 8.10877 92.436 8.22186C93.2173 8.68767 93.9367 9.11619 94.6834 9.53707C100.389 12.6616 105.766 16.357 110.732 20.5673L110.754 20.5865ZM85.2655 40.2119C80.5656 53.4402 71.2339 63.3013 60.0543 71.7354C47.8818 80.9782 38.984 94.8678 33.7261 109.258C30.2789 118.693 28.9584 129.589 29.457 139.905C29.8456 146.235 30.8617 152.511 32.4904 158.64C36.2012 170.966 42.4967 181.737 50.9553 191.171C56.1855 196.599 61.8739 201.712 68.4646 205.35C72.856 208.077 77.4604 210.442 82.2321 212.422C96.4088 217.812 111.792 219.164 126.685 216.33C144.017 213.303 159.678 204.487 171.634 191.521C185.171 176.841 193.048 158.073 193.519 138.615C193.661 132.71 193.471 126.854 192.243 121.078C190.991 114.667 189.296 108.289 186.457 102.397C178.129 84.0948 168.322 75.3126 164.624 72.4646C163.837 71.8578 162.745 72.1692 162.312 73.0636C159.997 77.855 153.092 91.6288 147.394 97.7257C146.826 98.4388 146.046 98.9506 145.167 99.1861C144.289 99.4216 143.359 99.3689 142.513 99.0353C141.671 98.6826 140.964 98.066 140.498 97.2774C140.032 96.4888 139.832 95.5712 139.927 94.6592C140.291 87.8306 139.582 80.987 137.827 74.3805C135.271 64.6228 131.439 55.2483 126.432 46.5024C121.674 37.8915 115.456 30.1826 108.056 23.7236C103.297 19.6884 98.1434 16.1476 92.6745 13.1547C91.8715 12.7027 91.0928 12.2384 90.2995 11.7658C90.1141 11.6553 89.9277 11.5443 89.7403 11.4329C88.6553 10.7883 87.3183 11.5761 87.3673 12.8371C87.4138 14.033 87.482 15.2286 87.5501 16.4243C87.672 18.5564 87.7934 20.689 87.7934 22.825C87.9808 28.7253 87.1251 34.612 85.2655 40.2119Z" fill="#1D1F20"/>
</svg>
